<svg xmlns="http://www.w3.org/2000/svg" xmlns:xlink="http://www.w3.org/1999/xlink" width="250" zoomAndPan="magnify" viewBox="0 0 187.5 56.249996" height="75" preserveAspectRatio="xMidYMid meet" version="1.0"><defs><g/><clipPath id="id1"><path d="M 0.988281 0 L 186.019531 0 L 186.019531 55.511719 L 0.988281 55.511719 Z M 0.988281 0 " clip-rule="nonzero"/></clipPath><clipPath id="id2"><path d="M 26.78125 24.5625 L 93.570312 24.5625 L 93.570312 52.761719 L 26.78125 52.761719 Z M 26.78125 24.5625 " clip-rule="nonzero"/></clipPath><clipPath id="id3"><path d="M 67 26 L 81 26 L 81 51 L 67 51 Z M 67 26 " clip-rule="nonzero"/></clipPath><clipPath id="id4"><path d="M 56.125 20.734375 L 84.128906 17.429688 L 87.867188 49.121094 L 59.859375 52.425781 Z M 56.125 20.734375 " clip-rule="nonzero"/></clipPath><clipPath id="id5"><path d="M 56.125 20.734375 L 84.128906 17.429688 L 87.867188 49.121094 L 59.859375 52.425781 Z M 56.125 20.734375 " clip-rule="nonzero"/></clipPath><clipPath id="id6"><path d="M 62 29 L 67 29 L 67 34 L 62 34 Z M 62 29 " clip-rule="nonzero"/></clipPath><clipPath id="id7"><path d="M 56.125 20.734375 L 84.128906 17.429688 L 87.867188 49.121094 L 59.859375 52.425781 Z M 56.125 20.734375 " clip-rule="nonzero"/></clipPath><clipPath id="id8"><path d="M 56.125 20.734375 L 84.128906 17.429688 L 87.867188 49.121094 L 59.859375 52.425781 Z M 56.125 20.734375 " clip-rule="nonzero"/></clipPath><clipPath id="id9"><path d="M 64 25 L 69 25 L 69 30 L 64 30 Z M 64 25 " clip-rule="nonzero"/></clipPath><clipPath id="id10"><path d="M 56.125 20.734375 L 84.128906 17.429688 L 87.867188 49.121094 L 59.859375 52.425781 Z M 56.125 20.734375 " clip-rule="nonzero"/></clipPath><clipPath id="id11"><path d="M 56.125 20.734375 L 84.128906 17.429688 L 87.867188 49.121094 L 59.859375 52.425781 Z M 56.125 20.734375 " clip-rule="nonzero"/></clipPath><clipPath id="id12"><path d="M 68 22 L 73 22 L 73 27 L 68 27 Z M 68 22 " clip-rule="nonzero"/></clipPath><clipPath id="id13"><path d="M 56.125 20.734375 L 84.128906 17.429688 L 87.867188 49.121094 L 59.859375 52.425781 Z M 56.125 20.734375 " clip-rule="nonzero"/></clipPath><clipPath id="id14"><path d="M 56.125 20.734375 L 84.128906 17.429688 L 87.867188 49.121094 L 59.859375 52.425781 Z M 56.125 20.734375 " clip-rule="nonzero"/></clipPath><clipPath id="id15"><path d="M 72 20 L 77 20 L 77 25 L 72 25 Z M 72 20 " clip-rule="nonzero"/></clipPath><clipPath id="id16"><path d="M 56.125 20.734375 L 84.128906 17.429688 L 87.867188 49.121094 L 59.859375 52.425781 Z M 56.125 20.734375 " clip-rule="nonzero"/></clipPath><clipPath id="id17"><path d="M 56.125 20.734375 L 84.128906 17.429688 L 87.867188 49.121094 L 59.859375 52.425781 Z M 56.125 20.734375 " clip-rule="nonzero"/></clipPath><clipPath id="id18"><path d="M 77 19 L 85 19 L 85 27 L 77 27 Z M 77 19 " clip-rule="nonzero"/></clipPath><clipPath id="id19"><path d="M 56.125 20.734375 L 84.128906 17.429688 L 87.867188 49.121094 L 59.859375 52.425781 Z M 56.125 20.734375 " clip-rule="nonzero"/></clipPath><clipPath id="id20"><path d="M 56.125 20.734375 L 84.128906 17.429688 L 87.867188 49.121094 L 59.859375 52.425781 Z M 56.125 20.734375 " clip-rule="nonzero"/></clipPath></defs><g clip-path="url(#id1)"><path fill="#ffffff" d="M 0.988281 0 L 186.511719 0 L 186.511719 63.078125 L 0.988281 63.078125 Z M 0.988281 0 " fill-opacity="1" fill-rule="nonzero"/><path fill="#38b6ff" d="M 0.988281 0 L 186.511719 0 L 186.511719 55.65625 L 0.988281 55.65625 Z M 0.988281 0 " fill-opacity="1" fill-rule="nonzero"/><path fill="#ffffff" d="M 0.988281 0 L 186.511719 0 L 186.511719 55.65625 L 0.988281 55.65625 Z M 0.988281 0 " fill-opacity="1" fill-rule="nonzero"/><path fill="#38b6ff" d="M 0.988281 0 L 186.511719 0 L 186.511719 55.65625 L 0.988281 55.65625 Z M 0.988281 0 " fill-opacity="1" fill-rule="nonzero"/></g><g fill="#eff7ff" fill-opacity="1"><g transform="translate(24.584719, 19.366472)"><g><path d="M 6.734375 0 L 3.421875 0 L 3.421875 -9.5625 L 0.421875 -9.5625 L 0.421875 -12.265625 L 9.734375 -12.265625 L 9.734375 -9.5625 L 6.734375 -9.5625 Z M 6.734375 0 "/></g></g></g><g fill="#eff7ff" fill-opacity="1"><g transform="translate(34.730744, 19.366472)"><g><path d="M 7.328125 0 L 6.703125 -1.265625 L 6.640625 -1.265625 C 6.191406 -0.710938 5.738281 -0.332031 5.28125 -0.125 C 4.820312 0.0703125 4.234375 0.171875 3.515625 0.171875 C 2.617188 0.171875 1.910156 -0.09375 1.390625 -0.625 C 0.878906 -1.164062 0.625 -1.925781 0.625 -2.90625 C 0.625 -3.914062 0.972656 -4.664062 1.671875 -5.15625 C 2.378906 -5.65625 3.398438 -5.9375 4.734375 -6 L 6.328125 -6.046875 L 6.328125 -6.1875 C 6.328125 -6.96875 5.941406 -7.359375 5.171875 -7.359375 C 4.472656 -7.359375 3.59375 -7.125 2.53125 -6.65625 L 1.578125 -8.828125 C 2.679688 -9.390625 4.082031 -9.671875 5.78125 -9.671875 C 7 -9.671875 7.941406 -9.367188 8.609375 -8.765625 C 9.273438 -8.160156 9.609375 -7.316406 9.609375 -6.234375 L 9.609375 0 Z M 4.90625 -2.15625 C 5.300781 -2.15625 5.640625 -2.28125 5.921875 -2.53125 C 6.203125 -2.78125 6.34375 -3.109375 6.34375 -3.515625 L 6.34375 -4.25 L 5.59375 -4.21875 C 4.507812 -4.175781 3.96875 -3.773438 3.96875 -3.015625 C 3.96875 -2.441406 4.28125 -2.15625 4.90625 -2.15625 Z M 4.90625 -2.15625 "/></g></g></g><g fill="#eff7ff" fill-opacity="1"><g transform="translate(45.430189, 19.366472)"><g><path d="M 6.875 -9.671875 C 7.15625 -9.671875 7.425781 -9.648438 7.6875 -9.609375 L 7.875 -9.578125 L 7.578125 -6.484375 C 7.304688 -6.546875 6.9375 -6.578125 6.46875 -6.578125 C 5.75 -6.578125 5.226562 -6.410156 4.90625 -6.078125 C 4.582031 -5.753906 4.421875 -5.285156 4.421875 -4.671875 L 4.421875 0 L 1.140625 0 L 1.140625 -9.515625 L 3.578125 -9.515625 L 4.09375 -7.984375 L 4.25 -7.984375 C 4.519531 -8.492188 4.898438 -8.898438 5.390625 -9.203125 C 5.878906 -9.515625 6.375 -9.671875 6.875 -9.671875 Z M 6.875 -9.671875 "/></g></g></g><g fill="#eff7ff" fill-opacity="1"><g transform="translate(53.488319, 19.366472)"><g/></g></g><g fill="#eff7ff" fill-opacity="1"><g transform="translate(57.949217, 19.366472)"><g><path d="M 11.84375 0 L 8.515625 0 L 8.515625 -5 L 4.65625 -5 L 4.65625 0 L 1.328125 0 L 1.328125 -12.265625 L 4.65625 -12.265625 L 4.65625 -7.71875 L 8.515625 -7.71875 L 8.515625 -12.265625 L 11.84375 -12.265625 Z M 11.84375 0 "/></g></g></g><g fill="#eff7ff" fill-opacity="1"><g transform="translate(71.105515, 19.366472)"><g><path d="M 5.71875 0.171875 C 4.132812 0.171875 2.90625 -0.25 2.03125 -1.09375 C 1.15625 -1.9375 0.71875 -3.132812 0.71875 -4.6875 C 0.71875 -6.289062 1.125 -7.519531 1.9375 -8.375 C 2.75 -9.238281 3.90625 -9.671875 5.40625 -9.671875 C 6.84375 -9.671875 7.953125 -9.296875 8.734375 -8.546875 C 9.515625 -7.804688 9.90625 -6.734375 9.90625 -5.328125 L 9.90625 -3.875 L 4.03125 -3.875 C 4.050781 -3.34375 4.242188 -2.925781 4.609375 -2.625 C 4.984375 -2.320312 5.488281 -2.171875 6.125 -2.171875 C 6.695312 -2.171875 7.222656 -2.222656 7.703125 -2.328125 C 8.191406 -2.441406 8.71875 -2.628906 9.28125 -2.890625 L 9.28125 -0.53125 C 8.769531 -0.269531 8.238281 -0.0859375 7.6875 0.015625 C 7.132812 0.117188 6.476562 0.171875 5.71875 0.171875 Z M 5.53125 -7.4375 C 5.144531 -7.4375 4.820312 -7.316406 4.5625 -7.078125 C 4.300781 -6.835938 4.148438 -6.457031 4.109375 -5.9375 L 6.921875 -5.9375 C 6.910156 -6.394531 6.78125 -6.757812 6.53125 -7.03125 C 6.28125 -7.300781 5.945312 -7.4375 5.53125 -7.4375 Z M 5.53125 -7.4375 "/></g></g></g><g fill="#eff7ff" fill-opacity="1"><g transform="translate(81.721109, 19.366472)"><g><path d="M 5.71875 0.171875 C 4.132812 0.171875 2.90625 -0.25 2.03125 -1.09375 C 1.15625 -1.9375 0.71875 -3.132812 0.71875 -4.6875 C 0.71875 -6.289062 1.125 -7.519531 1.9375 -8.375 C 2.75 -9.238281 3.90625 -9.671875 5.40625 -9.671875 C 6.84375 -9.671875 7.953125 -9.296875 8.734375 -8.546875 C 9.515625 -7.804688 9.90625 -6.734375 9.90625 -5.328125 L 9.90625 -3.875 L 4.03125 -3.875 C 4.050781 -3.34375 4.242188 -2.925781 4.609375 -2.625 C 4.984375 -2.320312 5.488281 -2.171875 6.125 -2.171875 C 6.695312 -2.171875 7.222656 -2.222656 7.703125 -2.328125 C 8.191406 -2.441406 8.71875 -2.628906 9.28125 -2.890625 L 9.28125 -0.53125 C 8.769531 -0.269531 8.238281 -0.0859375 7.6875 0.015625 C 7.132812 0.117188 6.476562 0.171875 5.71875 0.171875 Z M 5.53125 -7.4375 C 5.144531 -7.4375 4.820312 -7.316406 4.5625 -7.078125 C 4.300781 -6.835938 4.148438 -6.457031 4.109375 -5.9375 L 6.921875 -5.9375 C 6.910156 -6.394531 6.78125 -6.757812 6.53125 -7.03125 C 6.28125 -7.300781 5.945312 -7.4375 5.53125 -7.4375 Z M 5.53125 -7.4375 "/></g></g></g><g fill="#eff7ff" fill-opacity="1"><g transform="translate(92.336702, 19.366472)"><g><path d="M 4.421875 0 L 1.140625 0 L 1.140625 -13.0625 L 4.421875 -13.0625 Z M 4.421875 0 "/></g></g></g><g fill="#eff7ff" fill-opacity="1"><g transform="translate(97.887668, 19.366472)"><g/></g></g><g fill="#eff7ff" fill-opacity="1"><g transform="translate(102.348565, 19.366472)"><g><path d="M 14.578125 0 L 10.65625 0 L 9.484375 -5.34375 C 9.429688 -5.570312 9.34375 -6.015625 9.21875 -6.671875 C 9.09375 -7.335938 9.003906 -7.894531 8.953125 -8.34375 C 8.910156 -7.988281 8.835938 -7.539062 8.734375 -7 C 8.628906 -6.457031 8.53125 -5.957031 8.4375 -5.5 C 8.34375 -5.050781 7.9375 -3.21875 7.21875 0 L 3.296875 0 L 0.265625 -12.265625 L 3.453125 -12.265625 L 4.796875 -6.125 C 5.097656 -4.757812 5.300781 -3.675781 5.40625 -2.875 C 5.476562 -3.4375 5.609375 -4.207031 5.796875 -5.1875 C 5.984375 -6.164062 6.160156 -6.976562 6.328125 -7.625 L 7.40625 -12.265625 L 10.484375 -12.265625 L 11.53125 -7.625 C 11.707031 -6.882812 11.890625 -6.023438 12.078125 -5.046875 C 12.265625 -4.078125 12.390625 -3.351562 12.453125 -2.875 C 12.523438 -3.488281 12.722656 -4.5625 13.046875 -6.09375 L 14.40625 -12.265625 L 17.59375 -12.265625 Z M 14.578125 0 "/></g></g></g><g fill="#eff7ff" fill-opacity="1"><g transform="translate(120.192154, 19.366472)"><g><path d="M 4.4375 0 L 1.15625 0 L 1.15625 -9.515625 L 4.4375 -9.515625 Z M 1.0625 -11.875 C 1.0625 -12.363281 1.195312 -12.726562 1.46875 -12.96875 C 1.75 -13.207031 2.191406 -13.328125 2.796875 -13.328125 C 3.410156 -13.328125 3.859375 -13.203125 4.140625 -12.953125 C 4.421875 -12.710938 4.5625 -12.351562 4.5625 -11.875 C 4.5625 -10.914062 3.972656 -10.4375 2.796875 -10.4375 C 1.640625 -10.4375 1.0625 -10.914062 1.0625 -11.875 Z M 1.0625 -11.875 "/></g></g></g><g fill="#eff7ff" fill-opacity="1"><g transform="translate(125.776661, 19.366472)"><g><path d="M 7.140625 0 L 7.140625 -5.1875 C 7.140625 -5.820312 7.046875 -6.296875 6.859375 -6.609375 C 6.679688 -6.929688 6.390625 -7.09375 5.984375 -7.09375 C 5.429688 -7.09375 5.03125 -6.875 4.78125 -6.4375 C 4.539062 -6 4.421875 -5.238281 4.421875 -4.15625 L 4.421875 0 L 1.140625 0 L 1.140625 -9.515625 L 3.609375 -9.515625 L 4.015625 -8.328125 L 4.21875 -8.328125 C 4.488281 -8.773438 4.875 -9.109375 5.375 -9.328125 C 5.875 -9.554688 6.441406 -9.671875 7.078125 -9.671875 C 8.128906 -9.671875 8.945312 -9.363281 9.53125 -8.75 C 10.125 -8.144531 10.421875 -7.289062 10.421875 -6.1875 L 10.421875 0 Z M 7.140625 0 "/></g></g></g><g fill="#eff7ff" fill-opacity="1"><g transform="translate(137.28108, 19.366472)"><g><path d="M 4.09375 0.171875 C 3.414062 0.171875 2.820312 -0.0195312 2.3125 -0.40625 C 1.800781 -0.789062 1.40625 -1.359375 1.125 -2.109375 C 0.851562 -2.859375 0.71875 -3.734375 0.71875 -4.734375 C 0.71875 -6.285156 1.023438 -7.492188 1.640625 -8.359375 C 2.265625 -9.234375 3.125 -9.671875 4.21875 -9.671875 C 4.75 -9.671875 5.210938 -9.5625 5.609375 -9.34375 C 6.003906 -9.132812 6.367188 -8.78125 6.703125 -8.28125 L 6.765625 -8.28125 C 6.660156 -9.03125 6.609375 -9.773438 6.609375 -10.515625 L 6.609375 -13.0625 L 9.921875 -13.0625 L 9.921875 0 L 7.4375 0 L 6.734375 -1.203125 L 6.609375 -1.203125 C 6.046875 -0.285156 5.207031 0.171875 4.09375 0.171875 Z M 5.4375 -2.421875 C 5.957031 -2.421875 6.320312 -2.585938 6.53125 -2.921875 C 6.75 -3.253906 6.867188 -3.765625 6.890625 -4.453125 L 6.890625 -4.703125 C 6.890625 -5.546875 6.769531 -6.144531 6.53125 -6.5 C 6.289062 -6.851562 5.910156 -7.03125 5.390625 -7.03125 C 4.960938 -7.03125 4.628906 -6.828125 4.390625 -6.421875 C 4.148438 -6.015625 4.03125 -5.4375 4.03125 -4.6875 C 4.03125 -3.945312 4.148438 -3.382812 4.390625 -3 C 4.640625 -2.613281 4.988281 -2.421875 5.4375 -2.421875 Z M 5.4375 -2.421875 "/></g></g></g><g fill="#eff7ff" fill-opacity="1"><g transform="translate(148.324322, 19.366472)"><g><path d="M 10.21875 -4.78125 C 10.21875 -3.21875 9.796875 -2 8.953125 -1.125 C 8.117188 -0.257812 6.953125 0.171875 5.453125 0.171875 C 4.003906 0.171875 2.851562 -0.269531 2 -1.15625 C 1.144531 -2.050781 0.71875 -3.257812 0.71875 -4.78125 C 0.71875 -6.320312 1.132812 -7.519531 1.96875 -8.375 C 2.8125 -9.238281 3.988281 -9.671875 5.5 -9.671875 C 6.4375 -9.671875 7.257812 -9.472656 7.96875 -9.078125 C 8.6875 -8.679688 9.238281 -8.113281 9.625 -7.375 C 10.019531 -6.632812 10.21875 -5.769531 10.21875 -4.78125 Z M 4.046875 -4.78125 C 4.046875 -3.957031 4.15625 -3.332031 4.375 -2.90625 C 4.59375 -2.476562 4.960938 -2.265625 5.484375 -2.265625 C 5.992188 -2.265625 6.351562 -2.476562 6.5625 -2.90625 C 6.769531 -3.332031 6.875 -3.957031 6.875 -4.78125 C 6.875 -5.582031 6.765625 -6.191406 6.546875 -6.609375 C 6.335938 -7.023438 5.976562 -7.234375 5.46875 -7.234375 C 4.957031 -7.234375 4.59375 -7.023438 4.375 -6.609375 C 4.15625 -6.203125 4.046875 -5.59375 4.046875 -4.78125 Z M 4.046875 -4.78125 "/></g></g></g><g fill="#eff7ff" fill-opacity="1"><g transform="translate(159.266941, 19.366472)"><g><path d="M 9.3125 0 L 8.234375 -4.53125 L 7.984375 -5.90625 L 7.828125 -7 L 7.765625 -7 C 7.492188 -5.4375 7.3125 -4.445312 7.21875 -4.03125 L 6.25 0 L 2.796875 0 L 0.203125 -9.515625 L 3.4375 -9.515625 L 4.21875 -5.859375 C 4.457031 -4.609375 4.597656 -3.566406 4.640625 -2.734375 L 4.6875 -2.734375 C 4.707031 -3.253906 4.863281 -4.234375 5.15625 -5.671875 L 6.03125 -9.515625 L 9.65625 -9.515625 L 10.46875 -5.625 C 10.71875 -4.382812 10.878906 -3.421875 10.953125 -2.734375 L 11 -2.734375 C 11.03125 -3.160156 11.082031 -3.691406 11.15625 -4.328125 C 11.238281 -4.960938 11.332031 -5.472656 11.4375 -5.859375 L 12.265625 -9.515625 L 15.4375 -9.515625 L 12.828125 0 Z M 9.3125 0 "/></g></g></g><g fill="#eff7ff" fill-opacity="1"><g transform="translate(108.604937, 43.113837)"><g><path d="M 14.578125 0 L 10.65625 0 L 9.484375 -5.34375 C 9.429688 -5.570312 9.34375 -6.015625 9.21875 -6.671875 C 9.09375 -7.335938 9.003906 -7.894531 8.953125 -8.34375 C 8.910156 -7.988281 8.835938 -7.539062 8.734375 -7 C 8.628906 -6.457031 8.53125 -5.957031 8.4375 -5.5 C 8.34375 -5.050781 7.9375 -3.21875 7.21875 0 L 3.296875 0 L 0.265625 -12.265625 L 3.453125 -12.265625 L 4.796875 -6.125 C 5.097656 -4.757812 5.300781 -3.675781 5.40625 -2.875 C 5.476562 -3.4375 5.609375 -4.207031 5.796875 -5.1875 C 5.984375 -6.164062 6.160156 -6.976562 6.328125 -7.625 L 7.40625 -12.265625 L 10.484375 -12.265625 L 11.53125 -7.625 C 11.707031 -6.882812 11.890625 -6.023438 12.078125 -5.046875 C 12.265625 -4.078125 12.390625 -3.351562 12.453125 -2.875 C 12.523438 -3.488281 12.722656 -4.5625 13.046875 -6.09375 L 14.40625 -12.265625 L 17.59375 -12.265625 Z M 14.578125 0 "/></g></g></g><g fill="#eff7ff" fill-opacity="1"><g transform="translate(126.448525, 43.113837)"><g><path d="M 7.328125 0 L 6.703125 -1.265625 L 6.640625 -1.265625 C 6.191406 -0.710938 5.738281 -0.332031 5.28125 -0.125 C 4.820312 0.0703125 4.234375 0.171875 3.515625 0.171875 C 2.617188 0.171875 1.910156 -0.09375 1.390625 -0.625 C 0.878906 -1.164062 0.625 -1.925781 0.625 -2.90625 C 0.625 -3.914062 0.972656 -4.664062 1.671875 -5.15625 C 2.378906 -5.65625 3.398438 -5.9375 4.734375 -6 L 6.328125 -6.046875 L 6.328125 -6.1875 C 6.328125 -6.96875 5.941406 -7.359375 5.171875 -7.359375 C 4.472656 -7.359375 3.59375 -7.125 2.53125 -6.65625 L 1.578125 -8.828125 C 2.679688 -9.390625 4.082031 -9.671875 5.78125 -9.671875 C 7 -9.671875 7.941406 -9.367188 8.609375 -8.765625 C 9.273438 -8.160156 9.609375 -7.316406 9.609375 -6.234375 L 9.609375 0 Z M 4.90625 -2.15625 C 5.300781 -2.15625 5.640625 -2.28125 5.921875 -2.53125 C 6.203125 -2.78125 6.34375 -3.109375 6.34375 -3.515625 L 6.34375 -4.25 L 5.59375 -4.21875 C 4.507812 -4.175781 3.96875 -3.773438 3.96875 -3.015625 C 3.96875 -2.441406 4.28125 -2.15625 4.90625 -2.15625 Z M 4.90625 -2.15625 "/></g></g></g><g fill="#eff7ff" fill-opacity="1"><g transform="translate(137.14797, 43.113837)"><g><path d="M 8.46875 -2.921875 C 8.46875 -1.898438 8.117188 -1.128906 7.421875 -0.609375 C 6.734375 -0.0859375 5.742188 0.171875 4.453125 0.171875 C 3.742188 0.171875 3.128906 0.128906 2.609375 0.046875 C 2.085938 -0.0234375 1.554688 -0.160156 1.015625 -0.359375 L 1.015625 -2.984375 C 1.523438 -2.765625 2.082031 -2.582031 2.6875 -2.4375 C 3.289062 -2.289062 3.832031 -2.21875 4.3125 -2.21875 C 5.019531 -2.21875 5.375 -2.378906 5.375 -2.703125 C 5.375 -2.867188 5.273438 -3.015625 5.078125 -3.140625 C 4.878906 -3.273438 4.300781 -3.535156 3.34375 -3.921875 C 2.476562 -4.273438 1.867188 -4.679688 1.515625 -5.140625 C 1.171875 -5.597656 1 -6.175781 1 -6.875 C 1 -7.757812 1.335938 -8.445312 2.015625 -8.9375 C 2.703125 -9.425781 3.671875 -9.671875 4.921875 -9.671875 C 5.546875 -9.671875 6.132812 -9.601562 6.6875 -9.46875 C 7.238281 -9.332031 7.8125 -9.132812 8.40625 -8.875 L 7.515625 -6.75 C 7.078125 -6.945312 6.613281 -7.113281 6.125 -7.25 C 5.632812 -7.382812 5.238281 -7.453125 4.9375 -7.453125 C 4.394531 -7.453125 4.125 -7.320312 4.125 -7.0625 C 4.125 -6.90625 4.21875 -6.769531 4.40625 -6.65625 C 4.59375 -6.539062 5.132812 -6.304688 6.03125 -5.953125 C 6.695312 -5.671875 7.191406 -5.398438 7.515625 -5.140625 C 7.847656 -4.878906 8.085938 -4.570312 8.234375 -4.21875 C 8.390625 -3.863281 8.46875 -3.429688 8.46875 -2.921875 Z M 8.46875 -2.921875 "/></g></g></g><g fill="#eff7ff" fill-opacity="1"><g transform="translate(146.304549, 43.113837)"><g><path d="M 7.109375 0 L 7.109375 -5.1875 C 7.109375 -6.457031 6.734375 -7.09375 5.984375 -7.09375 C 5.441406 -7.09375 5.046875 -6.867188 4.796875 -6.421875 C 4.546875 -5.972656 4.421875 -5.222656 4.421875 -4.171875 L 4.421875 0 L 1.140625 0 L 1.140625 -13.0625 L 4.421875 -13.0625 L 4.421875 -11.203125 C 4.421875 -10.359375 4.375 -9.398438 4.28125 -8.328125 L 4.4375 -8.328125 C 4.75 -8.828125 5.117188 -9.175781 5.546875 -9.375 C 5.972656 -9.570312 6.472656 -9.671875 7.046875 -9.671875 C 8.109375 -9.671875 8.9375 -9.363281 9.53125 -8.75 C 10.125 -8.144531 10.421875 -7.289062 10.421875 -6.1875 L 10.421875 0 Z M 7.109375 0 "/></g></g></g><g fill="#eff7ff" fill-opacity="1"><g transform="translate(157.808968, 43.113837)"><g><path d="M 4.4375 0 L 1.15625 0 L 1.15625 -9.515625 L 4.4375 -9.515625 Z M 1.0625 -11.875 C 1.0625 -12.363281 1.195312 -12.726562 1.46875 -12.96875 C 1.75 -13.207031 2.191406 -13.328125 2.796875 -13.328125 C 3.410156 -13.328125 3.859375 -13.203125 4.140625 -12.953125 C 4.421875 -12.710938 4.5625 -12.351562 4.5625 -11.875 C 4.5625 -10.914062 3.972656 -10.4375 2.796875 -10.4375 C 1.640625 -10.4375 1.0625 -10.914062 1.0625 -11.875 Z M 1.0625 -11.875 "/></g></g></g><g fill="#eff7ff" fill-opacity="1"><g transform="translate(163.393474, 43.113837)"><g><path d="M 7.140625 0 L 7.140625 -5.1875 C 7.140625 -5.820312 7.046875 -6.296875 6.859375 -6.609375 C 6.679688 -6.929688 6.390625 -7.09375 5.984375 -7.09375 C 5.429688 -7.09375 5.03125 -6.875 4.78125 -6.4375 C 4.539062 -6 4.421875 -5.238281 4.421875 -4.15625 L 4.421875 0 L 1.140625 0 L 1.140625 -9.515625 L 3.609375 -9.515625 L 4.015625 -8.328125 L 4.21875 -8.328125 C 4.488281 -8.773438 4.875 -9.109375 5.375 -9.328125 C 5.875 -9.554688 6.441406 -9.671875 7.078125 -9.671875 C 8.128906 -9.671875 8.945312 -9.363281 9.53125 -8.75 C 10.125 -8.144531 10.421875 -7.289062 10.421875 -6.1875 L 10.421875 0 Z M 7.140625 0 "/></g></g></g><g clip-path="url(#id2)"><path fill="#1565c0" d="M 93.539062 33.019531 L 93.539062 30.203125 L 92.574219 29.097656 L 91.28125 26.851562 L 90.757812 24.5625 L 83.808594 25.972656 L 64.347656 25.972656 L 47.664062 24.5625 L 46.96875 26.675781 L 45.753906 27.382812 L 44.882812 30.203125 L 44.363281 29.320312 L 43.429688 29.453125 L 42.105469 31.609375 L 40.714844 30.90625 L 40.714844 30.203125 L 39.84375 30.203125 L 38.421875 31.679688 L 37.933594 33.019531 L 35.613281 33.730469 L 33.589844 35.023438 L 31.851562 35.386719 L 30.113281 36.195312 L 29.59375 37.25 L 28.316406 37.679688 L 27.289062 38.558594 L 26.8125 41.480469 L 36.542969 41.480469 L 39.394531 40.625 L 43.492188 38.660156 L 46.273438 38.835938 L 53.226562 40.070312 L 54.617188 41.480469 L 54.617188 42.890625 L 61.566406 42.890625 L 62.957031 43.597656 L 67.496094 48.300781 L 71.296875 52.761719 L 74.078125 51.351562 L 75.816406 52.761719 L 76.148438 51.273438 L 77.425781 48.496094 L 79.1875 46.632812 L 82.292969 44.707031 L 84.328125 44.300781 L 86.589844 44.300781 L 89.367188 41.832031 L 88.847656 41.480469 L 87.980469 41.480469 L 85.199219 40.601562 L 86.589844 38.660156 L 86.589844 35.839844 L 89.367188 37.25 L 90.238281 37.25 L 91.1875 34.871094 L 92.148438 34.429688 L 92.148438 33.019531 Z M 93.539062 33.019531 " fill-opacity="1" fill-rule="nonzero"/></g><g clip-path="url(#id3)"><g clip-path="url(#id4)"><g clip-path="url(#id5)"><path fill="#469acb" d="M 78.597656 27.417969 C 77.636719 26.519531 76.480469 26.140625 75.15625 26.296875 C 73.671875 26.472656 72.320312 27.308594 71.746094 27.667969 C 68.277344 29.824219 66.859375 32.855469 67.417969 36.933594 C 67.839844 40.007812 72.0625 50.972656 76.734375 50.421875 C 76.75 50.421875 76.886719 50.402344 76.898438 50.398438 C 78.636719 50.09375 79.910156 49.105469 80.484375 47.625 C 81.285156 45.5625 80.65625 42.847656 78.851562 40.539062 C 76.390625 37.394531 77.390625 36.089844 78.359375 34.824219 C 80.546875 31.960938 80.632812 29.332031 78.597656 27.417969 Z M 78.597656 27.417969 " fill-opacity="1" fill-rule="nonzero"/></g></g></g><g clip-path="url(#id6)"><g clip-path="url(#id7)"><g clip-path="url(#id8)"><path fill="#469acb" d="M 64.378906 29.644531 C 63.238281 29.777344 62.421875 30.808594 62.554688 31.945312 C 62.6875 33.078125 63.722656 33.890625 64.863281 33.757812 C 66.003906 33.625 66.820312 32.59375 66.6875 31.457031 C 66.550781 30.324219 65.515625 29.511719 64.378906 29.644531 Z M 64.378906 29.644531 " fill-opacity="1" fill-rule="nonzero"/></g></g></g><g clip-path="url(#id9)"><g clip-path="url(#id10)"><g clip-path="url(#id11)"><path fill="#469acb" d="M 66.863281 29.351562 C 68.003906 29.214844 68.820312 28.183594 68.6875 27.050781 C 68.554688 25.917969 67.519531 25.101562 66.378906 25.238281 C 65.242188 25.371094 64.421875 26.402344 64.558594 27.539062 C 64.691406 28.671875 65.726562 29.484375 66.863281 29.351562 Z M 66.863281 29.351562 " fill-opacity="1" fill-rule="nonzero"/></g></g></g><g clip-path="url(#id12)"><g clip-path="url(#id13)"><g clip-path="url(#id14)"><path fill="#469acb" d="M 70.515625 26.140625 C 71.652344 26.003906 72.472656 24.972656 72.335938 23.839844 C 72.203125 22.707031 71.167969 21.890625 70.03125 22.027344 C 68.890625 22.160156 68.074219 23.191406 68.207031 24.328125 C 68.339844 25.460938 69.378906 26.273438 70.515625 26.140625 Z M 70.515625 26.140625 " fill-opacity="1" fill-rule="nonzero"/></g></g></g><g clip-path="url(#id15)"><g clip-path="url(#id16)"><g clip-path="url(#id17)"><path fill="#469acb" d="M 75.0625 24.214844 C 76.199219 24.078125 77.015625 23.046875 76.882812 21.914062 C 76.75 20.777344 75.714844 19.964844 74.574219 20.101562 C 73.4375 20.234375 72.621094 21.265625 72.753906 22.398438 C 72.886719 23.535156 73.921875 24.347656 75.0625 24.214844 Z M 75.0625 24.214844 " fill-opacity="1" fill-rule="nonzero"/></g></g></g><g clip-path="url(#id18)"><g clip-path="url(#id19)"><g clip-path="url(#id20)"><path fill="#469acb" d="M 80.867188 19.359375 C 78.96875 19.582031 77.605469 21.300781 77.828125 23.191406 C 78.050781 25.082031 79.777344 26.4375 81.675781 26.214844 C 83.574219 25.988281 84.9375 24.269531 84.714844 22.378906 C 84.488281 20.488281 82.761719 19.132812 80.867188 19.359375 Z M 80.867188 19.359375 " fill-opacity="1" fill-rule="nonzero"/></g></g></g></svg>